<?xml version="1.0" encoding="UTF-8"?>
<svg version="1.1" xmlns="http://www.w3.org/2000/svg" width="571" height="154">
<path d="M0 0 C2.53479414 0.94032686 3.58045353 1.15124954 6.15625 0.22265625 C6.9296875 -0.16019531 7.703125 -0.54304688 8.5 -0.9375 C15.60426875 -3.9597 22.43664223 -4.05148262 29.8125 -1.875 C36.05920382 1.79953166 40.65744459 5.46531342 43.3359375 12.3828125 C45.37943499 20.43659672 44.97721986 28.4013883 40.80078125 35.66015625 C33.52858273 45.10928188 22.06666558 50.97443315 12 57 C14.10325242 58.62619517 16.20755729 60.25099532 18.3125 61.875 C18.90740234 62.33519531 19.50230469 62.79539062 20.11523438 63.26953125 C22.70028005 65.26247149 25.28299068 67.18866045 28 69 C29.67225729 68.69595322 31.33753959 68.35371498 33 68 C39.01020022 67.53767691 43.88634508 67.43233378 49 71 C53.63255317 75.42198257 55.57666631 79.57591121 56 86 C55.68741194 90.80604141 54.73516325 94.06062474 51.75 97.875 C46.35915587 102.04065228 42.24854661 103.57598575 35.46484375 103.3515625 C30.43065192 102.63353197 27.22870175 100.26190991 23.6875 96.625 C19.80122843 90.57968866 19.76663578 85.85202347 21 79 C21.32779816 77.66529507 21.66035583 76.33173974 22 75 C19.7524911 73.37145746 17.50215838 71.74709026 15.25 70.125 C14.61578125 69.66480469 13.9815625 69.20460938 13.328125 68.73046875 C8.17489987 64.52933139 8.17489987 64.52933139 2.03125 63.1875 C-0.41781997 64.16712799 -2.35235075 65.47016766 -4.5 67 C-7.33571867 69.01996399 -9.55550218 70.37372767 -13 71 C-12.34650367 78.55038422 -12.34650367 78.55038422 -11 86 C-11.66 86 -12.32 86 -13 86 C-13.020625 86.99 -13.04125 87.98 -13.0625 89 C-13.77542732 94.2352275 -17.41017765 97.39450157 -21 101 C-21.52207031 101.56203125 -22.04414062 102.1240625 -22.58203125 102.703125 C-24 104 -24 104 -26.3125 104.5 C-30.2562753 103.76627436 -32.0826197 101.71384214 -35 99 C-34.125 94.125 -34.125 94.125 -33 93 C-31.33391013 92.95615553 -29.66619446 92.9603287 -28 93 C-27.01 93 -26.02 93 -25 93 C-24.34 92.01 -23.68 91.02 -23 90 C-22.34 90 -21.68 90 -21 90 C-21 85.71 -21 81.42 -21 77 C-22.32 76.34 -23.64 75.68 -25 75 C-25.928125 74.4121875 -25.928125 74.4121875 -26.875 73.8125 C-29.99582368 72.61924389 -31.82458915 73.02793545 -35 74 C-37.7295585 76.47906969 -37.7295585 76.47906969 -40 79 C-40.66 79 -41.32 79 -42 79 C-42 79.66 -42 80.32 -42 81 C-41.01 81.33 -40.02 81.66 -39 82 C-39.33 83.65 -39.66 85.3 -40 87 C-42.1875 87.8125 -42.1875 87.8125 -45 88 C-48.2046685 85.39154889 -50.43681592 82.83690637 -52 79 C-51.34 79 -50.68 79 -50 79 C-49.773125 78.443125 -49.54625 77.88625 -49.3125 77.3125 C-46.4725702 72.30881417 -42.01247465 68.69902481 -37 66 C-32.11305307 64.72514428 -28.13914756 64.83613354 -23.3125 66.25 C-21.11197709 66.88655 -21.11197709 66.88655 -19 67 C-16.03468252 65.20105006 -16.03468252 65.20105006 -14.484375 63.515625 C-12.8273934 61.82375958 -11.06692981 60.53908315 -9.125 59.1875 C-8.09375 58.465625 -7.0625 57.74375 -6 57 C-7.2684375 56.23816406 -7.2684375 56.23816406 -8.5625 55.4609375 C-14.95481279 51.59384305 -21.15596917 47.6726502 -27 43 C-27.62648438 42.54238281 -28.25296875 42.08476563 -28.8984375 41.61328125 C-35.16668878 36.78646328 -37.74844071 30.85521913 -39 23.125 C-39.4665985 16.00381817 -37.07370459 9.56484515 -32.625 4.0625 C-22.31550856 -4.03781471 -12.15046182 -5.42431331 0 0 Z M-27.38671875 9.6953125 C-30.74352073 15.51376926 -31.12158171 21.68743934 -29.4453125 28.1328125 C-24.85510465 39.28046014 -10.97215737 45.34520017 -1 51 C-0.29875 51.46535156 0.4025 51.93070313 1.125 52.41015625 C3.10409777 53.23976182 3.10409777 53.23976182 5.4453125 52.12890625 C6.32960937 51.61199219 7.21390625 51.09507813 8.125 50.5625 C9.09050781 49.99917969 10.05601563 49.43585938 11.05078125 48.85546875 C14.71487097 46.55024674 18.26902904 44.12907727 21.77734375 41.59375 C23.59781569 40.28838524 25.4793449 39.06856062 27.375 37.875 C31.41428292 34.98979792 33.64220628 32.58025562 34.75 27.6875 C34.8325 26.800625 34.915 25.91375 35 25 C35.66 25 36.32 25 37 25 C37.70536479 18.53415607 36.4830674 15.16882308 32.66015625 9.91796875 C30.68164015 7.63220073 28.76200438 6.2275575 26 5 C25.34 4.67 24.68 4.34 24 4 C18.49908323 3.08124223 14.83815882 3.72502029 10.25 6.9375 C9.55390625 7.48277344 8.8578125 8.02804688 8.140625 8.58984375 C5.64617078 10.23308823 3.9859025 10.84579846 1 11 C-1.16796875 9.8203125 -1.16796875 9.8203125 -3.1875 8.125 C-7.52528496 4.55856112 -9.9272447 3.63085699 -15.55078125 3.73046875 C-20.37051425 4.26086999 -24.27610971 5.89248342 -27.38671875 9.6953125 Z M30 79 C28.27130221 82.45739557 28.51033105 86.21975568 29 90 C30.79393668 92.87029869 31.98263276 94.49131638 35 96 C40.26883876 96.59873168 42.8846468 95.25400021 47 92 C48.61429923 88.77140153 48.59570657 85.49006347 48 82 C46.26397895 78.97491855 44.16419863 76.58209931 41 75 C35.88480995 74.43164555 33.67158417 75.43331824 30 79 Z " fill="#6B79FE" transform="translate(99,21)"/>
<path d="M0 0 C0.78955078 -0.01224609 1.57910156 -0.02449219 2.39257812 -0.03710938 C4.45057435 -0.04237279 6.50812009 0.06543715 8.5625 0.1875 C10.76520788 2.39020788 11.10676978 3.49964464 11.9296875 6.44140625 C12.17589844 7.29669922 12.42210937 8.15199219 12.67578125 9.03320312 C13.17591664 10.81701934 13.67592086 12.60087233 14.17578125 14.38476562 C14.42457031 15.24908203 14.67335938 16.11339844 14.9296875 17.00390625 C15.14737793 17.78193604 15.36506836 18.55996582 15.58935547 19.36157227 C16.98172711 23.40489934 18.82570867 27.2797195 20.5625 31.1875 C22.8725 23.5975 25.1825 16.0075 27.5625 8.1875 C28.2225 8.1875 28.8825 8.1875 29.5625 8.1875 C29.8925 5.5475 30.2225 2.9075 30.5625 0.1875 C33.35423055 0.16059896 36.14570348 0.14070947 38.9375 0.125 C39.7315625 0.11662109 40.525625 0.10824219 41.34375 0.09960938 C47.3359375 0.07421875 47.3359375 0.07421875 49.5625 1.1875 C49.5625 18.0175 49.5625 34.8475 49.5625 52.1875 C46.91791621 53.50979189 44.88488699 53.28427194 41.9375 53.25 C40.93460937 53.24097656 39.93171875 53.23195312 38.8984375 53.22265625 C38.12757813 53.21105469 37.35671875 53.19945312 36.5625 53.1875 C35.6992399 49.46861134 35.44528444 46.04453512 35.46484375 42.23046875 C35.46806641 41.11865234 35.47128906 40.00683594 35.47460938 38.86132812 C35.48717773 37.1355957 35.48717773 37.1355957 35.5 35.375 C35.50451172 34.20517578 35.50902344 33.03535156 35.51367188 31.83007812 C35.52543057 28.94919677 35.54336526 26.06834181 35.5625 23.1875 C33.5825 29.7875 31.6025 36.3875 29.5625 43.1875 C28.9025 43.1875 28.2425 43.1875 27.5625 43.1875 C26.9025 46.4875 26.2425 49.7875 25.5625 53.1875 C21.9325 53.1875 18.3025 53.1875 14.5625 53.1875 C13.88989649 51.41891309 13.22461605 49.64753984 12.5625 47.875 C12.19125 46.88886719 11.82 45.90273437 11.4375 44.88671875 C10.5625 42.1875 10.5625 42.1875 10.5625 39.1875 C9.9025 39.1875 9.2425 39.1875 8.5625 39.1875 C7.2425 34.5675 5.9225 29.9475 4.5625 25.1875 C4.2325 34.4275 3.9025 43.6675 3.5625 53.1875 C-0.3975 53.1875 -4.3575 53.1875 -8.4375 53.1875 C-8.60467496 45.80033821 -8.76527864 38.41307465 -8.91967773 31.02563477 C-8.97318866 28.51029574 -9.02852469 25.99499488 -9.08569336 23.47973633 C-9.16735135 19.87329339 -9.2425364 16.26676604 -9.31640625 12.66015625 C-9.34344131 11.52788101 -9.37047638 10.39560577 -9.39833069 9.22901917 C-9.41842697 8.18801559 -9.43852325 7.14701202 -9.45922852 6.07446289 C-9.47921402 5.15290909 -9.49919952 4.23135529 -9.51979065 3.28187561 C-9.32335887 -1.7175007 -3.81803992 0.00310158 0 0 Z " fill="#6271FE" transform="translate(358.4375,43.8125)"/>
<path d="M0 0 C2.5 1.5625 2.5 1.5625 4 3 C4.53625 2.71125 5.0725 2.4225 5.625 2.125 C12.70689941 -1.22958393 17.39594683 -1.12543522 24.8125 0.6875 C27.93088496 2.55853098 28.69002896 4.65957385 30 8 C30.90292919 11.69063603 31.12859528 15.12758154 31.1328125 18.921875 C31.13474609 20.58283203 31.13474609 20.58283203 31.13671875 22.27734375 C31.13285156 23.42332031 31.12898438 24.56929687 31.125 25.75 C31.13080078 27.49216797 31.13080078 27.49216797 31.13671875 29.26953125 C31.13542969 30.37167969 31.13414062 31.47382812 31.1328125 32.609375 C31.13168457 33.61967773 31.13055664 34.62998047 31.12939453 35.67089844 C31 38 31 38 30 39 C28.14712498 39.07226502 26.29166122 39.0838122 24.4375 39.0625 C23.42558594 39.05347656 22.41367188 39.04445312 21.37109375 39.03515625 C20.19740234 39.01775391 20.19740234 39.01775391 19 39 C18.2108975 35.471402 17.83626409 32.12730791 17.71875 28.515625 C17.66267578 26.99001953 17.66267578 26.99001953 17.60546875 25.43359375 C17.53463918 23.29558998 17.46433417 21.15756878 17.39453125 19.01953125 C17.33845703 17.50166016 17.33845703 17.50166016 17.28125 15.953125 C17.25095703 15.02661133 17.22066406 14.10009766 17.18945312 13.14550781 C17.23310202 11.0190457 17.23310202 11.0190457 16 10 C14.00041636 9.95919217 11.99954746 9.95745644 10 10 C7.50408919 15.7454888 7.8063463 21.18007071 7.9375 27.3125 C7.97176107 29.30852438 8.00194055 31.30462449 8.02734375 33.30078125 C8.05429321 34.61816284 8.05429321 34.61816284 8.08178711 35.9621582 C8 38 8 38 7 39 C4.81360547 39.07258946 2.62499611 39.08373783 0.4375 39.0625 C-1.35880859 39.04896484 -1.35880859 39.04896484 -3.19140625 39.03515625 C-4.11824219 39.02355469 -5.04507813 39.01195312 -6 39 C-6.02505615 38.15703369 -6.0501123 37.31406738 -6.07592773 36.44555664 C-6.17088155 33.32758326 -6.27012448 30.20978497 -6.37231445 27.09204102 C-6.41571223 25.74085853 -6.4573837 24.38961947 -6.49731445 23.03833008 C-6.55489952 21.09963299 -6.61914298 19.16113724 -6.68359375 17.22265625 C-6.72025146 16.05484619 -6.75690918 14.88703613 -6.79467773 13.68383789 C-6.70076188 11.08220205 -6.70076188 11.08220205 -8 10 C-9.99958364 9.95919217 -12.00045254 9.95745644 -14 10 C-15.67898572 13.690823 -16.28433142 16.69499592 -16.4140625 20.73828125 C-16.47207031 22.33833008 -16.47207031 22.33833008 -16.53125 23.97070312 C-16.57765625 25.62489258 -16.57765625 25.62489258 -16.625 27.3125 C-16.68300781 28.99569336 -16.68300781 28.99569336 -16.7421875 30.71289062 C-16.83621665 33.47499682 -16.91918712 36.23747554 -17 39 C-20.96 39 -24.92 39 -29 39 C-29 26.46 -29 13.92 -29 1 C-23.555 0.505 -23.555 0.505 -18 0 C-17.67 0.99 -17.34 1.98 -17 3 C-16.443125 2.69964844 -15.88625 2.39929687 -15.3125 2.08984375 C-9.62415303 -0.74472104 -6.20483649 -1.5775008 0 0 Z " fill="#6E7DFE" transform="translate(207,58)"/>
<path d="M0 0 C3.96 0 7.92 0 12 0 C12.02464071 7.38728591 12.0428316 14.77454812 12.05493164 22.16186523 C12.05997363 24.67716895 12.06680703 27.19246972 12.07543945 29.70776367 C12.08751094 33.31429775 12.09322949 36.92079323 12.09765625 40.52734375 C12.10281754 41.65961899 12.10797882 42.79189423 12.11329651 43.95848083 C12.11337204 44.99948441 12.11344757 46.04048798 12.11352539 47.11303711 C12.115746 48.03459091 12.11796661 48.95614471 12.12025452 49.90562439 C12 52 12 52 11 53 C7.81415494 53.06018125 4.64409111 53.02008526 1.45898438 52.9609375 C-2.39606823 52.83271185 -2.39606823 52.83271185 -6 54 C-12.05853538 54.896612 -16.8601458 53.91546357 -22.046875 50.66015625 C-26.49669222 46.87781161 -27.71233871 42.47388713 -28.37109375 36.80859375 C-28.62705788 30.114744 -28.28732605 24.36549977 -24 19 C-20.0411077 14.90777713 -15.94242625 13.2264899 -10.2890625 12.84765625 C-6.46585866 13.10210156 -3.47361098 14.42108592 0 16 C0 10.72 0 5.44 0 0 Z M-15 26 C-16.77739569 31.33218706 -16.67853641 36.2728164 -14.625 41.5 C-13.24138268 44.09022556 -13.24138268 44.09022556 -11 45 C-7.65080137 45.29123466 -5.64243165 45.36462337 -2.6875 43.6875 C0.14151927 40.85848073 0.18041977 37.94031613 0.25 34.125 C0.20717901 29.92854301 -0.21195937 27.30434446 -3 24 C-8.20686074 20.52875951 -10.7973959 22.02456369 -15 26 Z " fill="#7280FE" transform="translate(312,44)"/>
<path d="M0 0 C3.09980802 4.03509886 3.40848132 7.2521921 3.51171875 12.26953125 C3.52966995 12.95053391 3.54762115 13.63153656 3.56611633 14.33317566 C3.61998631 16.4928888 3.65403782 18.65238399 3.6875 20.8125 C3.72069391 22.28323331 3.75518549 23.75393793 3.79101562 25.22460938 C3.87569716 28.81619687 3.94261961 32.40786076 4 36 C2.89140625 35.98839844 1.7828125 35.97679687 0.640625 35.96484375 C-0.82291498 35.95546208 -2.28645678 35.94636229 -3.75 35.9375 C-4.84441406 35.92493164 -4.84441406 35.92493164 -5.9609375 35.91210938 C-9.49625052 35.89603977 -12.59906693 36.08160826 -16 37 C-21.50707526 37.73989617 -25.83765691 37.64138216 -30.5625 34.5 C-33.23661656 32.20480684 -34.55722797 30.48661124 -35.1875 27 C-35.2499885 22.90700333 -34.60116721 20.27003878 -32 17 C-25.567071 13.26078314 -18.27408019 12.05100778 -11 11 C-10.67 9.68 -10.34 8.36 -10 7 C-12.84826598 4.63307034 -12.84826598 4.63307034 -16.1875 5.375 C-17.115625 5.58125 -18.04375 5.7875 -19 6 C-19.33 6.99 -19.66 7.98 -20 9 C-22.64458379 10.32229189 -24.67761301 10.09677194 -27.625 10.0625 C-28.62789063 10.05347656 -29.63078125 10.04445313 -30.6640625 10.03515625 C-31.43492187 10.02355469 -32.20578125 10.01195313 -33 10 C-32.67 7.69 -32.34 5.38 -32 3 C-31.34 3 -30.68 3 -30 3 C-30 2.34 -30 1.68 -30 1 C-20.45120789 -4.80416775 -10.01243941 -5.84058966 0 0 Z M-22 22 C-22 23.98 -22 25.96 -22 28 C-19.55333494 29.22333253 -18.20770626 29.04546823 -15.5 28.8125 C-14.7059375 28.75707031 -13.911875 28.70164062 -13.09375 28.64453125 C-10.84329089 28.19094178 -10.84329089 28.19094178 -9.7265625 26.12109375 C-8.87772358 23.64303174 -8.85545136 21.60187555 -9 19 C-14.26053037 18.68436818 -17.44573816 19.33409063 -22 22 Z " fill="#707EFE" transform="translate(447,61)"/>
<path d="M0 0 C5.76957941 3.923314 7.46943085 7.42279936 9.125 14.125 C9.375 17.625 9.375 17.625 9.125 20.125 C8.125 21.125 8.125 21.125 5.62475586 21.23852539 C4.54073486 21.23328857 3.45671387 21.22805176 2.33984375 21.22265625 C1.17001953 21.21943359 0.00019531 21.21621094 -1.20507812 21.21289062 C-2.43677734 21.20451172 -3.66847656 21.19613281 -4.9375 21.1875 C-6.79084961 21.18073242 -6.79084961 21.18073242 -8.68164062 21.17382812 C-11.74614117 21.16199608 -14.81054721 21.14551173 -17.875 21.125 C-17.545 23.105 -17.215 25.085 -16.875 27.125 C-13.18749941 28.35416686 -9.71058658 28.73020526 -5.875 28.125 C-5.235625 27.465 -4.59625 26.805 -3.9375 26.125 C-1.40915677 23.67327323 -0.5481057 23.85370541 2.875 23.875 C4.29267057 23.93902383 5.71006449 24.01615881 7.125 24.125 C8.125 27.125 8.125 27.125 6.75 30.5625 C3.95004306 35.08845779 0.16688562 36.80150502 -4.875 38.125 C-12.8364106 39.1929941 -18.36115887 37.35493764 -25.125 33.0625 C-28.98616141 29.61540415 -30.11098697 25.1096287 -30.875 20.125 C-31.01172342 14.43730582 -29.78657066 10.06201112 -26.875 5.125 C-26.215 5.125 -25.555 5.125 -24.875 5.125 C-24.66875 4.526875 -24.4625 3.92875 -24.25 3.3125 C-22.07403227 -0.14926684 -18.76793594 -1.29137675 -14.94921875 -2.46875 C-9.78314769 -3.48056053 -4.57860486 -2.53718868 0 0 Z M-17.875 10.125 C-17.875 11.115 -17.875 12.105 -17.875 13.125 C-13.585 13.455 -9.295 13.785 -4.875 14.125 C-4.545 12.805 -4.215 11.485 -3.875 10.125 C-5.81251477 7.44228724 -7.04593405 6.29506481 -10.3125 5.625 C-13.72994812 6.29181914 -15.43334905 7.68334905 -17.875 10.125 Z " fill="#717FFE" transform="translate(509.875,59.875)"/>
<path d="M0 0 C3.17024233 2.45869905 4.39751892 5.68123005 5.7578125 9.36328125 C6.1909375 10.41515625 6.6240625 11.46703125 7.0703125 12.55078125 C7.7578125 15.36328125 7.7578125 15.36328125 6.7578125 20.36328125 C-1.8221875 20.69328125 -10.4021875 21.02328125 -19.2421875 21.36328125 C-17.78929764 25.94747755 -17.78929764 25.94747755 -16.2421875 27.36328125 C-10.96486786 27.96733968 -10.96486786 27.96733968 -6.4296875 25.92578125 C-6.0378125 25.41015625 -5.6459375 24.89453125 -5.2421875 24.36328125 C-2.49139866 23.44635164 -0.88269837 23.25442042 1.9453125 23.30078125 C3.8325 23.33171875 3.8325 23.33171875 5.7578125 23.36328125 C5.18538443 27.37027774 4.34380109 30.21160765 1.7578125 33.36328125 C-4.44305945 37.47937729 -10.95183192 38.39706875 -18.2421875 37.36328125 C-23.28222876 35.99416987 -26.27269076 33.80002188 -29.1171875 29.42578125 C-29.85158362 28.08557014 -30.56314206 26.73236882 -31.2421875 25.36328125 C-31.6753125 24.51765625 -32.1084375 23.67203125 -32.5546875 22.80078125 C-33.45603341 19.60510029 -33.37164444 16.66443329 -33.2421875 13.36328125 C-32.5821875 13.36328125 -31.9221875 13.36328125 -31.2421875 13.36328125 C-31.1596875 12.49703125 -31.0771875 11.63078125 -30.9921875 10.73828125 C-29.97006364 6.13872387 -28.40676151 2.76336506 -24.33984375 0.1328125 C-15.96937093 -4.18491743 -8.44580845 -4.5541124 0 0 Z M-17.6796875 7.05078125 C-19.61542577 9.4505257 -19.61542577 9.4505257 -19.2421875 13.36328125 C-14.9521875 13.36328125 -10.6621875 13.36328125 -6.2421875 13.36328125 C-5.9121875 12.70328125 -5.5821875 12.04328125 -5.2421875 11.36328125 C-6.14242553 8.66565407 -6.14242553 8.66565407 -8.2421875 6.36328125 C-12.24536427 5.1259357 -14.16238383 4.61572486 -17.6796875 7.05078125 Z " fill="#6675FE" transform="translate(274.2421875,60.63671875)"/>
<path d="M0 0 C0.9075 0.00257812 1.815 0.00515625 2.75 0.0078125 C4.11125 0.00394531 4.11125 0.00394531 5.5 0 C7.75 0.1328125 7.75 0.1328125 8.75 1.1328125 C8.82205511 2.81890216 8.83386068 4.50781909 8.8125 6.1953125 C8.80347656 7.11441406 8.79445313 8.03351562 8.78515625 8.98046875 C8.77355469 9.69074219 8.76195312 10.40101562 8.75 11.1328125 C11.39 11.4628125 14.03 11.7928125 16.75 12.1328125 C16.42 14.4428125 16.09 16.7528125 15.75 19.1328125 C13.44 19.1328125 11.13 19.1328125 8.75 19.1328125 C8.75 26.3928125 8.75 33.6528125 8.75 41.1328125 C11.06 41.1328125 13.37 41.1328125 15.75 41.1328125 C16.85844919 44.45816007 16.59454356 46.75463825 15.75 50.1328125 C12.19577442 51.32326396 9.36403759 51.01478858 5.6875 50.4453125 C4.64464844 50.29707031 3.60179687 50.14882812 2.52734375 49.99609375 C-0.83261997 48.95171684 -1.49081347 48.12728691 -3.25 45.1328125 C-3.68237305 42.38378906 -3.68237305 42.38378906 -3.76171875 39.2734375 C-3.79716797 38.15839844 -3.83261719 37.04335937 -3.86914062 35.89453125 C-3.89169922 34.73566406 -3.91425781 33.57679687 -3.9375 32.3828125 C-3.97166016 31.20847656 -4.00582031 30.03414062 -4.04101562 28.82421875 C-4.12345173 25.92717861 -4.19261811 23.03043952 -4.25 20.1328125 C-6.23 19.8028125 -8.21 19.4728125 -10.25 19.1328125 C-10.25 16.8228125 -10.25 14.5128125 -10.25 12.1328125 C-8.27 11.8028125 -6.29 11.4728125 -4.25 11.1328125 C-4.18941406 10.42253906 -4.12882812 9.71226563 -4.06640625 8.98046875 C-3.98261719 8.06136719 -3.89882813 7.14226563 -3.8125 6.1953125 C-3.73128906 5.27878906 -3.65007812 4.36226562 -3.56640625 3.41796875 C-3.14682763 0.38767873 -3.06274626 0.18078711 0 0 Z " fill="#6372FF" transform="translate(462.25,46.8671875)"/>
<path d="M0 0 C1.20849609 -0.00386719 1.20849609 -0.00386719 2.44140625 -0.0078125 C4.4375 0.125 4.4375 0.125 5.4375 1.125 C5.52611992 3.9366338 5.55272355 6.72358255 5.53515625 9.53515625 C5.5337413 10.37719101 5.53232635 11.21922577 5.53086853 12.08677673 C5.52525263 14.78705335 5.51269748 17.48724828 5.5 20.1875 C5.49498705 22.01367068 5.49042379 23.83984266 5.48632812 25.66601562 C5.47527804 30.15237542 5.45800279 34.63867384 5.4375 39.125 C1.4775 39.125 -2.4825 39.125 -6.5625 39.125 C-6.5625 26.585 -6.5625 14.045 -6.5625 1.125 C-4.1828388 -0.0648306 -2.64764265 -0.00849966 0 0 Z " fill="#7A87FE" transform="translate(336.5625,57.875)"/>
<path d="M0 0 C0.99 0.33 1.98 0.66 3 1 C3 17.83 3 34.66 3 52 C0.35541621 53.32229189 -1.67761301 53.09677194 -4.625 53.0625 C-5.62789063 53.05347656 -6.63078125 53.04445312 -7.6640625 53.03515625 C-8.43492187 53.02355469 -9.20578125 53.01195312 -10 53 C-10 52.67 -10 52.34 -10 52 C-6.7 52 -3.4 52 0 52 C0 34.84 0 17.68 0 0 Z " fill="#F1F3FE" transform="translate(405,44)"/>
<path d="M0 0 C4.78447114 4.2808426 6.60303029 7.70724072 7.37109375 14.078125 C7.53323747 21.82287232 6.81009847 27.7500022 2 34 C-6.36880421 42.28689095 -16.76062391 48.31145773 -27 54 C-27 53.01 -27 52.02 -27 51 C-24.75261059 49.48960873 -22.55267614 48.17496795 -20.1875 46.875 C-8.16088642 39.91814993 0.48437506 33.54687482 5 20 C5.68177534 13.52313425 4.24892421 9.76334734 1.09375 4.1015625 C0 2 0 2 0 0 Z " fill="#F3F4FE" transform="translate(136,25)"/>
<path d="M0 0 C3.96 0 7.92 0 12 0 C12.09765625 6.93359375 12.09765625 6.93359375 12 9 C11 10 11 10 8.75 10.1328125 C7.8425 10.13023438 6.935 10.12765625 6 10.125 C4.63875 10.12886719 4.63875 10.12886719 3.25 10.1328125 C1 10 1 10 0 9 C-0.14193337 5.99668982 -0.04236378 3.00782866 0 0 Z " fill="#5F6FFF" transform="translate(330,44)"/>
<path d="M0 0 C2.97851562 0.1953125 2.97851562 0.1953125 5.95703125 0.390625 C5.95703125 0.720625 5.95703125 1.050625 5.95703125 1.390625 C3.97703125 1.720625 1.99703125 2.050625 -0.04296875 2.390625 C-2.53887956 8.1361138 -2.23662245 13.57069571 -2.10546875 19.703125 C-2.07120768 21.69914938 -2.0410282 23.69524949 -2.015625 25.69140625 C-1.99765869 26.56966064 -1.97969238 27.44791504 -1.96118164 28.3527832 C-2.04296875 30.390625 -2.04296875 30.390625 -3.04296875 31.390625 C-7.33296875 31.390625 -11.62296875 31.390625 -16.04296875 31.390625 C-16.04296875 22.150625 -16.04296875 12.910625 -16.04296875 3.390625 C-15.71296875 3.390625 -15.38296875 3.390625 -15.04296875 3.390625 C-15.04296875 12.300625 -15.04296875 21.210625 -15.04296875 30.390625 C-11.74296875 30.390625 -8.44296875 30.390625 -5.04296875 30.390625 C-5.0586792 29.62395508 -5.07438965 28.85728516 -5.09057617 28.06738281 C-5.15295849 24.59187198 -5.19197037 21.11647899 -5.23046875 17.640625 C-5.25560547 16.4340625 -5.28074219 15.2275 -5.30664062 13.984375 C-5.32114258 12.24414062 -5.32114258 12.24414062 -5.3359375 10.46875 C-5.35164795 9.40043945 -5.3673584 8.33212891 -5.38354492 7.23144531 C-4.94319094 3.55835651 -3.87200368 0.74034487 0 0 Z " fill="#EFF1FE" transform="translate(217.04296875,65.609375)"/>
<path d="M0 0 C-0.75925781 0.39832031 -1.51851562 0.79664062 -2.30078125 1.20703125 C-3.29464844 1.73683594 -4.28851563 2.26664062 -5.3125 2.8125 C-6.29863281 3.33457031 -7.28476563 3.85664062 -8.30078125 4.39453125 C-10.97440091 5.82932533 -10.97440091 5.82932533 -12.66796875 7.69921875 C-14 9 -14 9 -17 9 C-16.34650367 16.55038422 -16.34650367 16.55038422 -15 24 C-15.66 24 -16.32 24 -17 24 C-17.020625 24.99 -17.04125 25.98 -17.0625 27 C-17.77542732 32.2352275 -21.41017765 35.39450157 -25 39 C-25.51433594 39.56847656 -26.02867188 40.13695312 -26.55859375 40.72265625 C-28 42 -28 42 -30.6875 42.1875 C-31.8321875 42.0946875 -31.8321875 42.0946875 -33 42 C-32.319375 41.484375 -31.63875 40.96875 -30.9375 40.4375 C-28.64358989 38.53404268 -26.46191875 36.62198491 -24.3125 34.5625 C-23.44044922 33.72912109 -23.44044922 33.72912109 -22.55078125 32.87890625 C-19.37622489 29.03265535 -18.7227721 25.33171458 -18.75 20.4375 C-18.74484375 19.50808594 -18.7396875 18.57867187 -18.734375 17.62109375 C-19.00561899 14.9445538 -19.63883405 13.29561718 -21 11 C-5.54453617 -1.81217524 -5.54453617 -1.81217524 0 0 Z " fill="#F4F5FE" transform="translate(103,83)"/>
<path d="M0 0 C0.33 0 0.66 0 1 0 C0.3436874 6.05635299 -1.26028493 11.62943333 -3.0625 17.4375 C-3.34416016 18.35982422 -3.62582031 19.28214844 -3.91601562 20.23242188 C-4.60607599 22.48973798 -5.30083123 24.74549184 -6 27 C-6.66 27 -7.32 27 -8 27 C-8.66 30.3 -9.32 33.6 -10 37 C-13.63 37 -17.26 37 -21 37 C-21 36.67 -21 36.34 -21 36 C-18.03 36 -15.06 36 -12 36 C-11.88140625 35.31969727 -11.7628125 34.63939453 -11.640625 33.93847656 C-10.89688457 30.52702083 -9.85240557 27.2976968 -8.75 23.984375 C-8.53182617 23.32794006 -8.31365234 22.67150513 -8.08886719 21.99517822 C-7.62972963 20.6164108 -7.16909129 19.23814233 -6.70703125 17.86035156 C-5.99809468 15.74431298 -5.29563138 13.6262003 -4.59375 11.5078125 C-4.14621838 10.16653813 -3.69831488 8.82538777 -3.25 7.484375 C-2.84265625 6.26459961 -2.4353125 5.04482422 -2.015625 3.78808594 C-1 1 -1 1 0 0 Z " fill="#F4F5FE" transform="translate(394,60)"/>
<path d="M0 0 C3.1910041 4.78650614 3.09680563 8.23931912 2.87890625 13.953125 C2.85529526 14.61334656 2.83168427 15.27356812 2.80735779 15.95379639 C2.7310719 18.052769 2.64689847 20.15133949 2.5625 22.25 C2.5092441 23.67706397 2.45650396 25.10414728 2.40429688 26.53125 C2.27550501 30.02107733 2.13963981 33.51058798 2 37 C-1.96 37 -5.92 37 -10 37 C-10 36.67 -10 36.34 -10 36 C-6.7 36 -3.4 36 0 36 C0 24.12 0 12.24 0 0 Z " fill="#F2F4FE" transform="translate(360,60)"/>
<path d="M0 0 C3 0.25 3 0.25 5 2.25 C5.1875 5.3125 5.1875 5.3125 5 8.25 C4 9.25 4 9.25 2.15234375 9.34765625 C0.1015625 9.31510417 -1.94921875 9.28255208 -4 9.25 C-4.625 5.875 -4.625 5.875 -5 2.25 C-3 0.25 -3 0.25 0 0 Z " fill="#6978FE" transform="translate(137,101.75)"/>
<path d="M0 0 C0.79921875 0.00902344 1.5984375 0.01804687 2.421875 0.02734375 C3.02515625 0.03894531 3.6284375 0.05054687 4.25 0.0625 C4.25 0.3925 4.25 0.7225 4.25 1.0625 C3.51394531 1.18367188 2.77789062 1.30484375 2.01953125 1.4296875 C1.04371094 1.59726562 0.06789063 1.76484375 -0.9375 1.9375 C-1.90042969 2.09992187 -2.86335938 2.26234375 -3.85546875 2.4296875 C-6.69245585 3.0499195 -9.14109804 3.78795707 -11.75 5.0625 C-13.07481546 7.45779669 -13.07481546 7.45779669 -13.75 10.0625 C-14.08 11.0525 -14.41 12.0425 -14.75 13.0625 C-15.30512729 19.26497992 -14.9070123 23.57204383 -11.75 29.0625 C-12.08 29.7225 -12.41 30.3825 -12.75 31.0625 C-17.55351997 25.32926649 -18.1021123 21.3548245 -18.03125 14.01171875 C-17.52972135 8.75263357 -14.98547172 6.20531134 -11.25 2.75 C-7.51754652 0.2305939 -4.44478212 -0.06536444 0 0 Z " fill="#F6F6FE" transform="translate(84.75,23.9375)"/>
<path d="M0 0 C0.66 0 1.32 0 2 0 C8.36516854 12.1741573 8.36516854 12.1741573 7 19 C-1.58 19.33 -10.16 19.66 -19 20 C-18.34 21.98 -17.68 23.96 -17 26 C-20 25 -20 25 -21.1875 23.125 C-22 21 -22 21 -22 18 C-13.09 18 -4.18 18 5 18 C3.71231991 8.10495567 3.71231991 8.10495567 0 0 Z " fill="#F5F6FE" transform="translate(274,62)"/>
<path d="M0 0 C0.99 0 1.98 0 3 0 C2.67 2.31 2.34 4.62 2 7 C-0.31 7 -2.62 7 -5 7 C-5 14.26 -5 21.52 -5 29 C-5.66 28.67 -6.32 28.34 -7 28 C-7 20.74 -7 13.48 -7 6 C-4.69 6 -2.38 6 0 6 C0 4.02 0 2.04 0 0 Z " fill="#FDFDFE" transform="translate(476,59)"/>
<path d="M0 0 C2.87712066 2.87712066 2.74382482 4.9652409 3 9 C2.56202484 13.7447309 1.71368337 17.08807125 -1.25 20.875 C-7.33553558 25.57745931 -12.37991029 26.96822922 -20 26 C-22.3046875 24.98046875 -22.3046875 24.98046875 -24 24 C-23.34 23.67 -22.68 23.34 -22 23 C-21.01 23.33 -20.02 23.66 -19 24 C-13.765505 24.43620792 -9.99834129 24.31126382 -5.54296875 21.375 C-1.61765404 17.87699803 -0.14955312 14.00057944 0.23828125 8.8125 C0.24871668 5.8627529 0.17663921 2.94398681 0 0 Z " fill="#F0F1FE" transform="translate(152,98)"/>
<path d="M0 0 C3.31681189 2.21120793 3.47544566 2.62889422 4.46484375 6.25390625 C4.82932617 7.5368457 4.82932617 7.5368457 5.20117188 8.84570312 C5.44416016 9.74224609 5.68714844 10.63878906 5.9375 11.5625 C7.62761074 17.70794311 9.44279658 23.35388422 12.42797852 29.00756836 C13 31 13 31 12.10522461 33.25610352 C11.74050049 33.83158936 11.37577637 34.4070752 11 35 C9.42960995 30.33818932 7.86312992 25.67509043 6.30029297 21.01074219 C5.76784386 19.42346559 5.23431935 17.83654931 4.69970703 16.25 C3.93240311 13.97228892 3.16894888 11.69331907 2.40625 9.4140625 C2.16563843 8.70255035 1.92502686 7.99103821 1.67712402 7.25796509 C0 2.22774341 0 2.22774341 0 0 Z " fill="#FAFBFE" transform="translate(366,44)"/>
<path d="M0 0 C0 0.33 0 0.66 0 1 C-1.423125 1.0928125 -1.423125 1.0928125 -2.875 1.1875 C-4.421875 1.5896875 -4.421875 1.5896875 -6 2 C-7.9018114 5.56500303 -8.28578982 8.74044937 -8.4140625 12.73828125 C-8.45273438 13.80498047 -8.49140625 14.87167969 -8.53125 15.97070312 C-8.57765625 17.62489258 -8.57765625 17.62489258 -8.625 19.3125 C-8.68300781 20.99569336 -8.68300781 20.99569336 -8.7421875 22.71289062 C-8.83621665 25.47499682 -8.91918712 28.23747554 -9 31 C-12.96 31 -16.92 31 -21 31 C-21 30.67 -21 30.34 -21 30 C-17.37 30 -13.74 30 -10 30 C-10.02356567 28.79670044 -10.02356567 28.79670044 -10.04760742 27.5690918 C-10.10988583 23.94196596 -10.14896864 20.31495251 -10.1875 16.6875 C-10.21263672 15.42486328 -10.23777344 14.16222656 -10.26367188 12.86132812 C-10.27333984 11.65283203 -10.28300781 10.44433594 -10.29296875 9.19921875 C-10.3086792 8.08377686 -10.32438965 6.96833496 -10.34057617 5.8190918 C-10 3 -10 3 -8.7121582 1.12426758 C-5.94344445 -0.69377418 -3.20844848 -0.18161029 0 0 Z " fill="#FCFCFE" transform="translate(199,66)"/>
<path d="M0 0 C1.134375 0.020625 2.26875 0.04125 3.4375 0.0625 C2.86 0.330625 2.2825 0.59875 1.6875 0.875 C-2.0203827 2.83193809 -4.20562738 3.99188213 -5.5625 8.0625 C-5.8646788 12.80848472 -5.75559535 17.43925552 -4.5625 22.0625 C-7.90585968 18.86450378 -8.74157596 16.94722966 -8.875 12.3125 C-8.83959198 6.19576479 -6.82892997 0.11980579 0 0 Z " fill="#ECEDFE" transform="translate(302.5625,64.9375)"/>
<path d="M0 0 C0.66 0 1.32 0 2 0 C1.42757193 4.00699649 0.58598859 6.8483264 -2 10 C-8.11585186 14.05966029 -14.78124031 15.06121937 -22 14 C-22.66 13.34 -23.32 12.68 -24 12 C-23.31035156 12.04640625 -22.62070313 12.0928125 -21.91015625 12.140625 C-15.28762293 12.39498842 -9.45192562 12.11722184 -4 8 C-2.21179339 5.46751281 -1.01446383 2.92279091 0 0 Z " fill="#F0F1FE" transform="translate(278,84)"/>
<path d="M0 0 C1.134375 0.020625 2.26875 0.04125 3.4375 0.0625 C3.4375 0.3925 3.4375 0.7225 3.4375 1.0625 C1.7978125 1.43375 1.7978125 1.43375 0.125 1.8125 C-3.45024181 2.78830989 -3.45024181 2.78830989 -5.5 4.625 C-7.12314261 8.34868012 -7.10480387 12.06212857 -6.5625 16.0625 C-5.61475874 18.28310641 -5.61475874 18.28310641 -4.5625 20.0625 C-7.5625 19.0625 -7.5625 19.0625 -9.5625 16.0625 C-10.10843928 12.67192974 -10.11400778 9.45265077 -9.5625 6.0625 C-7.125 3 -7.125 3 -4.5625 1.0625 C-3.5625 0.0625 -3.5625 0.0625 0 0 Z " fill="#F5F6FE" transform="translate(135.5625,94.9375)"/>
<path d="M0 0 C0.66 0.33 1.32 0.66 2 1 C0.79046472 5.43496271 -0.35192185 8.14069551 -4 11 C-9.7305812 14.20912547 -14.50961352 14.35259645 -21 14 C-21 13.67 -21 13.34 -21 13 C-19.91332031 12.85304688 -19.91332031 12.85304688 -18.8046875 12.703125 C-13.01590982 11.80779405 -8.47802307 11.04114277 -4 7 C-2.43867462 4.72408683 -1.24029412 2.48058824 0 0 Z " fill="#F4F5FE" transform="translate(516,84)"/>
<path d="M0 0 C0.66 0 1.32 0 2 0 C2.02689216 1.47906892 2.04634621 2.95827483 2.0625 4.4375 C2.07410156 5.26121094 2.08570313 6.08492187 2.09765625 6.93359375 C2 9 2 9 1 10 C-0.68608966 10.07205511 -2.37500659 10.08386068 -4.0625 10.0625 C-4.98160156 10.05347656 -5.90070313 10.04445313 -6.84765625 10.03515625 C-7.55792969 10.02355469 -8.26820313 10.01195312 -9 10 C-9.33 9.34 -9.66 8.68 -10 8 C-6.7 8 -3.4 8 0 8 C0 5.36 0 2.72 0 0 Z " fill="#E1E4FF" transform="translate(340,44)"/>
<path d="M0 0 C0 0.66 0 1.32 0 2 C-0.68707031 2.13277344 -1.37414062 2.26554687 -2.08203125 2.40234375 C-3.43361328 2.66724609 -3.43361328 2.66724609 -4.8125 2.9375 C-6.15248047 3.19853516 -6.15248047 3.19853516 -7.51953125 3.46484375 C-10.11397171 3.97741153 -10.11397171 3.97741153 -13 5 C-13 6.98 -13 8.96 -13 11 C-13.66 10.67 -14.32 10.34 -15 10 C-15.3125 7.1875 -15.3125 7.1875 -15 4 C-10.72754985 0.2454226 -5.49908928 0 0 0 Z " fill="#E7E9FE" transform="translate(438,78)"/>
<path d="M0 0 C0.89203125 0.01804687 1.7840625 0.03609375 2.703125 0.0546875 C3.71632813 0.08949219 3.71632813 0.08949219 4.75 0.125 C4.75 0.455 4.75 0.785 4.75 1.125 C4.1209375 1.19976563 3.491875 1.27453125 2.84375 1.3515625 C-3.22725118 2.28415606 -6.90188984 3.83852545 -11.4609375 7.98046875 C-13.25 9.125 -13.25 9.125 -15.4765625 8.80078125 C-16.06179687 8.57777344 -16.64703125 8.35476562 -17.25 8.125 C-16.26 7.795 -15.27 7.465 -14.25 7.125 C-13.445625 6.320625 -12.64125 5.51625 -11.8125 4.6875 C-7.96415722 0.83915722 -5.42324137 -0.14271688 0 0 Z " fill="#F4F5FE" transform="translate(117.25,23.875)"/>
<path d="M0 0 C1.64574566 -0.02688151 3.29161413 -0.04634123 4.9375 -0.0625 C5.85402344 -0.07410156 6.77054687 -0.08570313 7.71484375 -0.09765625 C10 0 10 0 11 1 C10.91036938 2.69141656 10.75422324 4.37959602 10.5625 6.0625 C10.46066406 6.98160156 10.35882813 7.90070312 10.25390625 8.84765625 C10.17011719 9.55792969 10.08632813 10.26820312 10 11 C9.34 11 8.68 11 8 11 C8 7.7 8 4.4 8 1 C5.36 1 2.72 1 0 1 C0 0.67 0 0.34 0 0 Z " fill="#BAC1FF" transform="translate(460,47)"/>
<path d="M0 0 C0.33 0 0.66 0 1 0 C0.35852708 5.13178334 -0.46439743 10.05194727 -2 15 C-2.99 15.33 -3.98 15.66 -5 16 C-3.90301833 10.30860098 -2.45946923 5.25432063 0 0 Z " fill="#F1F2FE" transform="translate(394,60)"/>
<path d="M0 0 C0.99 0.33 1.98 0.66 3 1 C2.67 3.64 2.34 6.28 2 9 C-1.12180401 9.96661363 -3.52083795 9.98988909 -6.75 9.5625 C-7.54921875 9.46066406 -8.3484375 9.35882813 -9.171875 9.25390625 C-9.77515625 9.17011719 -10.3784375 9.08632812 -11 9 C-11 8.67 -11 8.34 -11 8 C-7.37 8 -3.74 8 0 8 C0 5.36 0 2.72 0 0 Z " fill="#E3E6FE" transform="translate(476,88)"/>
<path d="M0 0 C-2 1 -4 2 -6 3 C-6.33 3.99 -6.66 4.98 -7 6 C-9.64458379 7.32229189 -11.67761301 7.09677194 -14.625 7.0625 C-15.62789063 7.05347656 -16.63078125 7.04445313 -17.6640625 7.03515625 C-18.43492187 7.02355469 -19.20578125 7.01195313 -20 7 C-20 6.67 -20 6.34 -20 6 C-16.7 6 -13.4 6 -10 6 C-9.67 4.68 -9.34 3.36 -9 2 C-5.5647952 -0.29013653 -4.014669 -0.17842973 0 0 Z " fill="#EFF0FE" transform="translate(434,64)"/>
<path d="M0 0 C0.66 0 1.32 0 2 0 C2 0.99 2 1.98 2 3 C-3.61670516 4.95363658 -9.04981631 5.73969377 -15 5 C-15.66 4.34 -16.32 3.68 -17 3 C-16.14728516 3.03480469 -16.14728516 3.03480469 -15.27734375 3.0703125 C-10.07779303 3.19183789 -5.90947829 2.73877356 -1 1 C-0.67 0.67 -0.34 0.34 0 0 Z " fill="#EBEDFE" transform="translate(436,93)"/>
<path d="M0 0 C0.33 1.32 0.66 2.64 1 4 C-3.95512985 6.03287378 -8.69556365 6.6870508 -14 6 C-14.99 5.34 -15.98 4.68 -17 4 C-15.91332031 4.06960937 -15.91332031 4.06960937 -14.8046875 4.140625 C-8.46110041 4.37745225 -4.85794935 4.20146971 0 0 Z " fill="#F6F7FE" transform="translate(311,92)"/>
<path d="M0 0 C0.99 0.66 1.98 1.32 3 2 C3.25 5.0625 3.25 5.0625 3 8 C2 9 2 9 0.15234375 9.09765625 C-1.8984375 9.06510417 -3.94921875 9.03255208 -6 9 C-5.67 8.34 -5.34 7.68 -5 7 C-3.02 7 -1.04 7 1 7 C0.67 4.69 0.34 2.38 0 0 Z " fill="#F2F4FF" transform="translate(139,102)"/>
<path d="M0 0 C-0.5775 0.268125 -1.155 0.53625 -1.75 0.8125 C-5.4578827 2.76943809 -7.64312738 3.92938213 -9 8 C-9.66 8 -10.32 8 -11 8 C-10.67842796 5.02545866 -10.37860258 3.40664722 -8.3125 1.1875 C-5.39975854 -0.3082321 -3.23000416 -0.22022756 0 0 Z " fill="#F0F2FE" transform="translate(501,65)"/>
<path d="M0 0 C0.58265625 0.22171875 1.1653125 0.4434375 1.765625 0.671875 C0.6209375 1.3215625 0.6209375 1.3215625 -0.546875 1.984375 C-3.19723753 3.50939858 -3.19723753 3.50939858 -4.921875 5.359375 C-5.355 5.7925 -5.788125 6.225625 -6.234375 6.671875 C-6.894375 6.671875 -7.554375 6.671875 -8.234375 6.671875 C-8.564375 7.331875 -8.894375 7.991875 -9.234375 8.671875 C-9.234375 5.671875 -9.234375 5.671875 -7.84375 4.03125 C-7.23015625 3.50015625 -6.6165625 2.9690625 -5.984375 2.421875 C-5.07945313 1.60976562 -5.07945313 1.60976562 -4.15625 0.78125 C-2.234375 -0.328125 -2.234375 -0.328125 0 0 Z " fill="#F6F7FE" transform="translate(65.234375,93.328125)"/>
<path d="M0 0 C0 0.33 0 0.66 0 1 C-1.11375 1.226875 -2.2275 1.45375 -3.375 1.6875 C-7.16038373 2.60623658 -7.16038373 2.60623658 -8.4375 5.625 C-8.623125 6.40875 -8.80875 7.1925 -9 8 C-9.99 8 -10.98 8 -12 8 C-9.49922557 0.88241125 -7.68009555 -0.43472239 0 0 Z " fill="#F0F2FE" transform="translate(264,65)"/>
<path d="M0 0 C0.99 0 1.98 0 3 0 C2.67 2.31 2.34 4.62 2 7 C-0.97 7 -3.94 7 -7 7 C-7 6.67 -7 6.34 -7 6 C-4.69 6 -2.38 6 0 6 C0 4.02 0 2.04 0 0 Z " fill="#E0E3FE" transform="translate(476,59)"/>
<path d="M0 0 C0.99 0.33 1.98 0.66 3 1 C2.67 2.65 2.34 4.3 2 6 C-0.375 6.625 -0.375 6.625 -3 7 C-3.66 6.34 -4.32 5.68 -5 5 C-3.35 4.67 -1.7 4.34 0 4 C0 2.68 0 1.36 0 0 Z " fill="#EFF0FE" transform="translate(57,102)"/>
<path d="M0 0 C0 0.33 0 0.66 0 1 C-1.051875 1.268125 -2.10375 1.53625 -3.1875 1.8125 C-6.57519246 2.8676829 -9.07089567 4.04726378 -12 6 C-9.40401988 0.00927665 -6.20086134 -0.23399477 0 0 Z " fill="#E7E9FF" transform="translate(139,95)"/>
<path d="M0 0 C0.33 0 0.66 0 1 0 C0.6875 3.375 0.6875 3.375 0 7 C-0.99 7.66 -1.98 8.32 -3 9 C-2.01 6.03 -1.02 3.06 0 0 Z " fill="#D1D6FF" transform="translate(394,60)"/>
</svg>
