<?xml version="1.0" encoding="UTF-8"?>
<svg version="1.1" xmlns="http://www.w3.org/2000/svg" width="143" height="152">
<path d="M0 0 C2.0703125 1.078125 2.0703125 1.078125 3.82421875 2.16796875 C5.75722448 3.28471684 7.29015781 3.85574841 9.5078125 4.140625 C12.6007482 2.30089265 12.6007482 2.30089265 15.5078125 0.140625 C21.76239774 -1.94423675 29.79069728 -2.07629082 35.8828125 0.640625 C42.34772094 4.53597152 47.14564512 10.4268998 49.125 17.73046875 C50.46098901 26.1417465 48.62771916 32.55591237 43.78515625 39.5078125 C39.66364774 44.27264395 34.7337248 47.68048679 29.5078125 51.140625 C28.48042969 51.83800781 27.45304687 52.53539062 26.39453125 53.25390625 C19.00079847 58.140625 19.00079847 58.140625 15.5078125 58.140625 C15.5078125 58.800625 15.5078125 59.460625 15.5078125 60.140625 C16.22839844 60.388125 16.94898438 60.635625 17.69140625 60.890625 C20.79851133 62.26964529 22.97297349 63.95677272 25.5703125 66.140625 C29.6792432 69.7497859 29.6792432 69.7497859 34.5078125 72.140625 C36.52751178 71.3079879 36.52751178 71.3079879 38.5078125 70.140625 C44.15724287 69.34970475 48.68081363 69.95919393 53.5078125 73.140625 C57.82469738 76.86884376 60.13812231 79.75085032 60.76171875 85.46875 C61.02997059 91.24914455 60.47105678 94.6559012 56.5078125 99.140625 C51.62731061 103.82998451 47.643019 105.57194691 40.921875 105.484375 C35.24858278 104.67652756 31.49942157 101.41191868 28.0703125 97.015625 C25.61760681 92.50264652 25.16708305 89.25156673 25.5078125 84.140625 C26.33159231 81.67407499 27.35929641 79.48551201 28.5078125 77.140625 C27.68990234 76.769375 27.68990234 76.769375 26.85546875 76.390625 C24.01255932 74.87692947 21.53374035 73.05641378 18.9453125 71.140625 C12.89184332 66.08437352 12.89184332 66.08437352 5.5078125 65.140625 C3.0964546 66.47772867 0.98078151 67.79708093 -1.2421875 69.390625 C-1.83128906 69.78636719 -2.42039063 70.18210937 -3.02734375 70.58984375 C-5.44401348 72.28429034 -7.241876 73.57024307 -8.4453125 76.3125 C-8.63804538 78.24057019 -8.63804538 78.24057019 -7.4921875 80.140625 C-6.90530121 85.9421403 -6.66865413 91.42964737 -10.08984375 96.43359375 C-16.31385896 104.00990195 -16.31385896 104.00990195 -19.4921875 106.140625 C-23.19805999 105.94380324 -24.4178155 105.20044596 -27.3671875 102.828125 C-29.4921875 100.140625 -29.4921875 100.140625 -29.3046875 97.828125 C-29.0365625 97.27125 -28.7684375 96.714375 -28.4921875 96.140625 C-26.12008783 95.37816439 -24.891746 95.00327676 -22.4921875 95.828125 C-21.8321875 95.93125 -21.1721875 96.034375 -20.4921875 96.140625 C-17.71884832 93.92195365 -16.62345308 92.53442175 -15.4921875 89.140625 C-14.92203076 83.30006114 -14.92203076 83.30006114 -17.3671875 78.140625 C-21.7232704 75.35273195 -25.44898988 75.54227952 -30.4921875 76.140625 C-31.9771875 76.635625 -31.9771875 76.635625 -33.4921875 77.140625 C-33.8221875 78.130625 -34.1521875 79.120625 -34.4921875 80.140625 C-35.1521875 80.140625 -35.8121875 80.140625 -36.4921875 80.140625 C-36.1415625 80.6975 -35.7909375 81.254375 -35.4296875 81.828125 C-34.27372757 84.67949283 -34.68251312 86.22579722 -35.4921875 89.140625 C-37.2578125 89.85546875 -37.2578125 89.85546875 -39.4921875 90.140625 C-41.4140625 88.70703125 -41.4140625 88.70703125 -43.2421875 86.703125 C-43.85578125 86.04441406 -44.469375 85.38570313 -45.1015625 84.70703125 C-45.56046875 84.19011719 -46.019375 83.67320313 -46.4921875 83.140625 C-43.83546593 76.96972147 -38.0431749 71.08116022 -32.0546875 68.015625 C-26.65341586 66.68899688 -21.34354288 67.16867672 -16.07421875 68.96484375 C-12.20725943 69.22810119 -10.11949975 67.06561884 -7.3046875 64.703125 C-1.69816818 60.140625 -1.69816818 60.140625 0.5078125 60.140625 C0.5078125 59.480625 0.5078125 58.820625 0.5078125 58.140625 C-0.36359375 57.88410156 -1.235 57.62757812 -2.1328125 57.36328125 C-13.21504163 53.3298653 -25.81690713 43.65384672 -31.65625 33.23828125 C-33.96917687 27.43434795 -34.15239689 21.05056599 -32.34375 15.08203125 C-29.39577794 8.36119587 -24.61975616 3.9559036 -18.4921875 0.140625 C-12.7907567 -1.75985193 -5.71073323 -1.96921836 0 0 Z M-22.3046875 12.203125 C-26.35297505 17.63939686 -26.0867036 22.4960333 -25.4921875 29.140625 C-21.21571988 38.80916049 -10.1673439 44.85620082 -1.4921875 50.140625 C-0.72132812 50.66269531 0.04953125 51.18476562 0.84375 51.72265625 C1.53726563 52.19058594 2.23078125 52.65851563 2.9453125 53.140625 C3.84056641 53.759375 3.84056641 53.759375 4.75390625 54.390625 C7.16506746 55.42167835 8.06191116 55.08304218 10.5078125 54.140625 C22.1897572 48.307268 35.54152256 41.14209968 41.5078125 29.140625 C43.16020908 23.19199732 42.16248577 18.5827052 39.5078125 13.140625 C35.94795544 8.7376439 32.86223724 6.51206897 27.21484375 5.88671875 C21.03937474 5.59709766 17.53304826 6.55117089 12.5078125 10.140625 C11.9509375 10.73875 11.3940625 11.336875 10.8203125 11.953125 C9.5078125 13.140625 9.5078125 13.140625 7.6953125 13.140625 C4.51574405 11.68710799 2.15872944 9.39672452 -0.4921875 7.140625 C-8.62851871 4.4285146 -16.59334409 5.56693337 -22.3046875 12.203125 Z M34.5078125 81.140625 C32.82181027 84.05281067 32.50013842 85.77226919 32.5703125 89.140625 C33.7485514 92.91098948 35.53226669 94.60052492 38.5078125 97.140625 C41.32782577 98.55063164 43.37788505 98.38610951 46.5078125 98.140625 C49.24820587 96.89499165 50.9721993 95.82927055 52.8203125 93.453125 C53.85477333 89.97357494 54.22666447 86.69259942 53.5078125 83.140625 C51.21581847 80.18011626 51.21581847 80.18011626 48.5078125 78.140625 C48.1778125 77.810625 47.8478125 77.480625 47.5078125 77.140625 C41.7233873 76.65858957 38.64297171 76.6405988 34.5078125 81.140625 Z " fill="#7583FE" transform="translate(65.4921875,22.859375)"/>
<path d="M0 0 C1.18424057 -0.0071553 2.36848114 -0.01431061 3.58860779 -0.02168274 C6.82851116 -0.03567755 10.06737797 -0.02727901 13.30722356 -0.00759244 C16.70062898 0.00881625 20.09398308 -0.00002172 23.4874115 -0.00511169 C29.18444978 -0.00962961 34.8811594 0.00621949 40.578125 0.03417969 C47.16245264 0.06624602 53.74618811 0.06620919 60.33055788 0.04896492 C66.66898393 0.0330971 73.00719309 0.03983389 79.34560966 0.05690193 C82.04134337 0.06377029 84.73690311 0.06274239 87.43263435 0.05535698 C91.19635085 0.04991948 94.95905502 0.07023478 98.72265625 0.09765625 C100.40048691 0.08786743 100.40048691 0.08786743 102.11221313 0.07788086 C103.13701279 0.09060532 104.16181244 0.10332977 105.21766663 0.11643982 C106.10715531 0.11924674 106.996644 0.12205366 107.91308689 0.12494564 C111.15319554 0.81299945 112.32887734 1.99755342 114.29663086 4.63110352 C114.7944088 7.06708622 114.7944088 7.06708622 114.79110718 9.8374176 C114.79949615 10.89035004 114.80788513 11.94328247 114.81652832 13.02812195 C114.80528931 14.17787003 114.79405029 15.3276181 114.7824707 16.51220703 C114.7862674 17.72716858 114.79006409 18.94213013 114.79397583 20.19390869 C114.80011556 23.52264992 114.78837745 26.85039761 114.76806974 30.17902112 C114.7504919 33.66230478 114.75402394 37.14557202 114.75479126 40.62889099 C114.75291884 46.47729472 114.73556195 52.32549077 114.70825195 58.17382812 C114.67678701 64.93695631 114.6662563 71.69985719 114.66772306 78.46305329 C114.66894343 84.9685593 114.65873529 91.47399125 114.64213943 97.97947502 C114.63507575 100.74855057 114.63141323 103.51759991 114.63035202 106.28668404 C114.62797136 110.15100274 114.60855362 114.0151321 114.5871582 117.87939453 C114.58806458 119.03116684 114.58897095 120.18293915 114.58990479 121.36961365 C114.58137482 122.41972626 114.57284485 123.46983887 114.5640564 124.55177307 C114.56070471 125.4656054 114.55735302 126.37943773 114.55389977 127.32096195 C114.29663086 129.63110352 114.29663086 129.63110352 112.29663086 132.63110352 C109.35618023 133.61125373 107.4407493 133.76344203 104.37588501 133.77827454 C102.85336876 133.78900749 102.85336876 133.78900749 101.3000946 133.79995728 C100.1872963 133.80264618 99.07449799 133.80533508 97.92797852 133.80810547 C96.75538986 133.81467667 95.58280121 133.82124786 94.37467957 133.82801819 C90.48669079 133.8477615 86.5987155 133.85941639 82.71069336 133.86938477 C81.37135167 133.87343306 80.03201019 133.87755 78.69266891 133.88173485 C72.40130512 133.90077859 66.10995303 133.91501259 59.81856596 133.92334682 C52.5586036 133.93312338 45.29894579 133.95945685 38.03909075 133.99984771 C32.42540784 134.03000752 26.81181226 134.04481545 21.1980499 134.04812783 C17.84599306 134.05047807 14.49426189 134.05943468 11.14229202 134.084589 C7.40263641 134.10884901 3.66378192 134.10803919 -0.07592773 134.10107422 C-1.18467758 134.11388428 -2.29342743 134.12669434 -3.43577576 134.13989258 C-7.67089552 134.11107968 -10.94564262 133.9389535 -14.88964844 132.33657837 C-17.9069454 127.83576353 -17.39744673 123.16644178 -17.3503418 117.87353516 C-17.36348419 116.07054207 -17.36348419 116.07054207 -17.37689209 114.23112488 C-17.39512977 110.93718989 -17.39085468 107.64482514 -17.37499666 104.35097814 C-17.36232899 100.90196845 -17.37408042 97.45302541 -17.38192749 94.00401306 C-17.39102285 88.21104908 -17.37904079 82.41840386 -17.35522461 76.62548828 C-17.32802588 69.93262951 -17.33681799 63.2405326 -17.36435664 56.54769236 C-17.38706566 50.79804571 -17.3902388 45.04862811 -17.37716329 39.29895109 C-17.36937677 35.86643616 -17.36830429 32.43427898 -17.38484573 29.00178719 C-17.40200546 25.17358045 -17.37820541 21.34622285 -17.3503418 17.51806641 C-17.36046295 16.38283539 -17.37058411 15.24760437 -17.38101196 14.07797241 C-17.31902666 9.48616743 -17.17564436 6.4674497 -14.89439392 2.4276123 C-10.01172445 -0.32127222 -5.51585607 -0.05776156 0 0 Z M-13.70336914 4.63110352 C-13.75004483 20.76414466 -13.78533619 36.89716397 -13.80699348 53.03025627 C-13.81731564 60.52076344 -13.83139385 68.01122871 -13.85424805 75.50170898 C-13.87415325 82.02875296 -13.88707874 88.5557666 -13.89154613 95.08284009 C-13.8941584 98.54038124 -13.90031769 101.99783558 -13.91482925 105.45534897 C-13.93087988 109.31066288 -13.93135068 113.16589108 -13.93041992 117.02124023 C-13.93761047 118.17354126 -13.94480103 119.32584229 -13.95220947 120.51306152 C-13.94946014 121.55916595 -13.94671082 122.60527039 -13.94387817 123.68307495 C-13.94572176 124.59565001 -13.94756535 125.50822506 -13.9494648 126.4484539 C-13.90941013 128.84068228 -13.90941013 128.84068228 -11.70336914 130.63110352 C-9.4852267 130.93224919 -9.4852267 130.93224919 -6.88269043 130.87834167 C-5.35573296 130.88463341 -5.35573296 130.88463341 -3.79792786 130.89105225 C-2.67682114 130.88543274 -1.55571442 130.87981323 -0.40063477 130.87402344 C1.36525749 130.87687096 1.36525749 130.87687096 3.16682434 130.879776 C6.40027027 130.88285188 9.63354875 130.87696052 12.86697578 130.86682296 C16.2466428 130.8580528 19.62630537 130.8597997 23.00598145 130.86018372 C28.68215239 130.85924658 34.35826995 130.85055605 40.03442383 130.83691406 C46.60208592 130.82118801 53.1696895 130.81591593 59.73736906 130.81664962 C66.04849785 130.81725949 72.35960754 130.81215776 78.67073059 130.8038578 C81.35968678 130.8003223 84.04863621 130.79849417 86.7375946 130.7979641 C90.48972544 130.7958055 94.24178159 130.7870716 97.99389648 130.77636719 C99.1150032 130.77682037 100.23610992 130.77727356 101.39118958 130.77774048 C102.40916122 130.77347549 103.42713287 130.76921051 104.47595215 130.76481628 C105.80773373 130.76230252 105.80773373 130.76230252 107.16641998 130.75973797 C109.3504997 130.76770575 109.3504997 130.76770575 111.29663086 129.63110352 C111.29663086 88.38110352 111.29663086 47.13110352 111.29663086 4.63110352 C108.83495675 3.40026646 107.22923519 3.50528905 104.47595215 3.50411987 C103.4579805 3.50130005 102.44000885 3.49848022 101.39118958 3.49557495 C100.27008286 3.49759918 99.14897614 3.49962341 97.99389648 3.50170898 C96.81663498 3.49995667 95.63937347 3.49820435 94.42643738 3.49639893 C91.19303978 3.49274473 87.95968294 3.49361132 84.72628593 3.49677801 C81.34661649 3.49930516 77.96694982 3.49696308 74.58728027 3.49539185 C68.91112782 3.49357119 63.23498837 3.49597373 57.55883789 3.50073242 C50.99117888 3.50617485 44.42355091 3.50441211 37.85589266 3.49890602 C32.22274398 3.49437192 26.58960466 3.49372579 20.95645475 3.49634469 C17.58952036 3.49790582 14.22260057 3.49810567 10.85566711 3.4948082 C7.10354486 3.49228044 3.35148297 3.49612407 -0.40063477 3.50170898 C-1.52174149 3.49968475 -2.64284821 3.49766052 -3.79792786 3.49557495 C-5.32488533 3.49980469 -5.32488533 3.49980469 -6.88269043 3.50411987 C-7.77054482 3.5044969 -8.6583992 3.50487392 -9.57315826 3.50526237 C-11.75729185 3.49402761 -11.75729185 3.49402761 -13.70336914 4.63110352 Z " fill="#8096FE" transform="translate(23.703369140625,8.368896484375)"/>
<path d="M0 0 C1.02776047 -0.00708481 2.05552094 -0.01416962 3.11442566 -0.02146912 C4.80471893 -0.01775299 4.80471893 -0.01775299 6.52915955 -0.01396179 C7.71632065 -0.01907272 8.90348175 -0.02418365 10.12661743 -0.02944946 C13.3827161 -0.04097794 16.63865712 -0.04341762 19.89477086 -0.04088616 C22.61120619 -0.03981729 25.32761796 -0.04469746 28.04404825 -0.04949158 C34.44991053 -0.06058823 40.85571417 -0.06102275 47.26158142 -0.05497742 C53.87648065 -0.04893103 60.49116753 -0.06126497 67.10603052 -0.08254749 C72.78167297 -0.10013863 78.45724767 -0.10616896 84.13291639 -0.10290974 C87.52448166 -0.10109336 90.91589533 -0.10376839 94.30743599 -0.11762428 C98.08593991 -0.12989346 101.86394548 -0.12325455 105.6424408 -0.11161804 C106.77132721 -0.11926178 107.90021362 -0.12690552 109.06330872 -0.13478088 C110.60071968 -0.12425941 110.60071968 -0.12425941 112.16918945 -0.11352539 C113.06311936 -0.11369313 113.95704927 -0.11386087 114.87806797 -0.1140337 C115.93887026 0.07145771 115.93887026 0.07145771 117.02110291 0.26069641 C118.01110291 1.74569641 118.01110291 1.74569641 119.02110291 3.26069641 C56.65110291 3.75569641 56.65110291 3.75569641 -6.97889709 4.26069641 C-6.97889709 45.18069641 -6.97889709 86.10069641 -6.97889709 128.26069641 C-7.30889709 128.26069641 -7.63889709 128.26069641 -7.97889709 128.26069641 C-8.04890975 111.86689952 -8.10184716 95.47315096 -8.13433361 79.0792408 C-8.14981708 71.46763747 -8.17093469 63.85612692 -8.20521545 56.24458313 C-8.23507272 49.61206339 -8.25446133 42.97961082 -8.26116258 36.34702575 C-8.26508112 32.83354688 -8.27432052 29.32026021 -8.29608727 25.8068428 C-8.32016224 21.88924243 -8.32086946 17.97183184 -8.31947327 14.05415344 C-8.33025909 12.88315094 -8.34104492 11.71214844 -8.35215759 10.50566101 C-8.3480336 9.44272827 -8.34390961 8.37979553 -8.33966064 7.28465271 C-8.34242602 6.35732897 -8.3451914 5.43000523 -8.34804058 4.47458076 C-8.22622323 3.74399893 -8.10440588 3.01341709 -7.97889709 2.26069641 C-4.71086509 0.08200841 -3.78323115 0.00868436 0 0 Z " fill="#AFBCFE" transform="translate(16.978897094726563,8.739303588867188)"/>
<path d="M0 0 C2.475 0.495 2.475 0.495 5 1 C5.04669285 17.24615429 5.0819755 33.49228686 5.10362434 49.73849201 C5.11394285 57.28165745 5.12801412 64.82478122 5.15087891 72.36791992 C5.17079525 78.94148527 5.18371226 85.51502044 5.18817699 92.08861512 C5.19078736 95.57022122 5.1969347 99.051741 5.21146011 102.53331947 C5.22753283 106.41716776 5.22798081 110.30093112 5.22705078 114.18481445 C5.23424133 115.34287094 5.24143188 116.50092743 5.24884033 117.69407654 C5.246091 118.74996979 5.24334167 119.80586304 5.24050903 120.89375305 C5.24235262 121.81278066 5.24419621 122.73180826 5.24609566 123.67868519 C5 126 5 126 3 129 C2.01 128.67 1.02 128.34 0 128 C0 127.34 0 126.68 0 126 C0.66 126 1.32 126 2 126 C2 84.75 2 43.5 2 1 C1.34 0.67 0.68 0.34 0 0 Z " fill="#97A8FE" transform="translate(133,12)"/>
<path d="M0 0 C2.375 0.75 2.375 0.75 3.375 1.75 C3.5625 4.1875 3.5625 4.1875 3.375 6.75 C2.715 7.41 2.055 8.07 1.375 8.75 C-1.75 8.375 -1.75 8.375 -4.625 7.75 C-5.3125 5.4375 -5.3125 5.4375 -5.625 2.75 C-3.9659358 -0.015107 -3.22812218 -0.30744021 0 0 Z " fill="#7F8CFF" transform="translate(109.625,106.25)"/>
</svg>
